<?xml version="1.0" encoding="UTF-8" standalone="no"?>
<svg
   xmlns:dc="http://purl.org/dc/elements/1.1/"
   xmlns:cc="http://creativecommons.org/ns#"
   xmlns:rdf="http://www.w3.org/1999/02/22-rdf-syntax-ns#"
   xmlns:svg="http://www.w3.org/2000/svg"
   xmlns="http://www.w3.org/2000/svg"
   xmlns:sodipodi="http://sodipodi.sourceforge.net/DTD/sodipodi-0.dtd"
   xmlns:inkscape="http://www.inkscape.org/namespaces/inkscape"
   width="41"
   height="41"
   viewBox="0 0 10.847916 10.847916"
   version="1.1"
   id="svg8"
   inkscape:version="1.0.1 (0767f8302a, 2020-10-17)"
   sodipodi:docname="fb.svg">
  <defs
     id="defs2" />
  <sodipodi:namedview
     id="base"
     pagecolor="#ffffff"
     bordercolor="#666666"
     borderopacity="1.0"
     inkscape:pageopacity="0.0"
     inkscape:pageshadow="2"
     inkscape:zoom="5.6"
     inkscape:cx="37.229686"
     inkscape:cy="58.923847"
     inkscape:document-units="mm"
     inkscape:current-layer="layer1"
     inkscape:document-rotation="0"
     showgrid="false"
     inkscape:window-width="1872"
     inkscape:window-height="1043"
     inkscape:window-x="1968"
     inkscape:window-y="0"
     inkscape:window-maximized="1"
     units="px" />
  <metadata
     id="metadata5">
    <rdf:RDF>
      <cc:Work
         rdf:about="">
        <dc:format>image/svg+xml</dc:format>
        <dc:type
           rdf:resource="http://purl.org/dc/dcmitype/StillImage" />
        <dc:title></dc:title>
      </cc:Work>
    </rdf:RDF>
  </metadata>
  <g
     inkscape:label="Calque 1"
     inkscape:groupmode="layer"
     id="layer1">
    <path
       id="path881"
       style="fill:#2b7270;fill-opacity:1;stroke:#2b7270;stroke-width:0.444107;stroke-opacity:1"
       d="M 6.0857154,6.534826 H 7.2989447 C 7.4115728,6.0764911 7.5821959,5.3442386 7.3968964,5.0230661 H 6.0857237 c 0,0 0.027289,-1.1112154 0.2055596,-1.4395342 C 6.5463468,3.1676648 7.2263032,3.5385384 7.5512681,3.3980426 7.5233719,3.0087318 7.5627509,2.5591562 7.5564905,2.1679951 6.8242182,2.1064551 6.0033918,1.9799737 5.3366907,2.3665775 4.7307981,2.7421528 4.6511618,3.3388119 4.5810352,4.0258776 c -0.020529,0.2889608 -0.0091,-0.013981 -0.092618,1.001085 L 3.3076167,5.0230706 V 6.5348304 H 4.5332536 V 10.417928 C 2.4158114,10.055875 0.62680395,8.2236769 0.39638796,6.0703524 0.20667465,4.6029102 0.66471892,3.0552653 1.699882,1.9848537 2.6744549,0.91119283 4.1190754,0.28291484 5.5713228,0.3608806 7.8353184,0.36062334 9.9240866,2.1195337 10.37573,4.331744 10.748997,6.0024127 10.218155,7.8430968 8.9760177,9.0283044 8.271571,9.7253996 7.0805852,10.27787 6.1024003,10.451012 Z"
       sodipodi:nodetypes="cccccccccccccccccccccc" />
  </g>
</svg>
