<?xml version="1.0" encoding="UTF-8" standalone="no"?>
<svg
   xmlns:dc="http://purl.org/dc/elements/1.1/"
   xmlns:cc="http://creativecommons.org/ns#"
   xmlns:rdf="http://www.w3.org/1999/02/22-rdf-syntax-ns#"
   xmlns:svg="http://www.w3.org/2000/svg"
   xmlns="http://www.w3.org/2000/svg"
   xmlns:sodipodi="http://sodipodi.sourceforge.net/DTD/sodipodi-0.dtd"
   xmlns:inkscape="http://www.inkscape.org/namespaces/inkscape"
   width="41"
   height="41"
   viewBox="0 0 10.847915 10.847915"
   version="1.1"
   id="svg8"
   inkscape:version="1.0.1 (0767f8302a, 2020-10-17)"
   sodipodi:docname="insta.svg">
  <defs
     id="defs2" />
  <sodipodi:namedview
     id="base"
     pagecolor="#ffffff"
     bordercolor="#666666"
     borderopacity="1.0"
     inkscape:pageopacity="0.0"
     inkscape:pageshadow="2"
     inkscape:zoom="5.6"
     inkscape:cx="-13.172963"
     inkscape:cy="69.760232"
     inkscape:document-units="mm"
     inkscape:current-layer="layer1"
     inkscape:document-rotation="0"
     showgrid="false"
     inkscape:window-width="1872"
     inkscape:window-height="1043"
     inkscape:window-x="1968"
     inkscape:window-y="0"
     inkscape:window-maximized="1"
     units="px" />
  <metadata
     id="metadata5">
    <rdf:RDF>
      <cc:Work
         rdf:about="">
        <dc:format>image/svg+xml</dc:format>
        <dc:type
           rdf:resource="http://purl.org/dc/dcmitype/StillImage" />
        <dc:title></dc:title>
      </cc:Work>
    </rdf:RDF>
  </metadata>
  <g
     inkscape:label="Calque 1"
     inkscape:groupmode="layer"
     id="layer1">
    <g
       id="g1169"
       transform="matrix(0.0206653,0,0,0.02066759,0.13188959,0.132748)"
       style="fill:#2b7270;fill-opacity:1">
      <path
         id="path1152"
         d="m 305,256 c 1.62908,35.68889 -41.74721,61.51795 -72.35655,43.08607 -31.82814,-15.47849 -34.23783,-65.25062 -4.04006,-83.71778 C 259.67616,193.03925 306.12938,217.70047 305,256 Z"
         style="fill:#2b7270;fill-opacity:1" />
      <path
         id="path1154"
         d="m 370.59375,169.30469 c -10.95635,-31.22956 -47.81709,-34.61409 -75.98779,-33.65186 -39.34603,0.78072 -79.19885,-2.86454 -118.17004,3.44059 -30.93713,5.985 -42.44243,39.86114 -40.52472,67.80874 0.097,41.82499 -2.55603,83.99036 2.45208,125.5827 4.19777,30.17026 35.77762,45.26919 63.62683,43.41505 43.45211,0.21994 87.26364,2.74386 130.4889,-2.25977 30.09502,-4.28717 45.28616,-35.77579 43.41699,-63.62779 0.21993,-43.45294 2.74379,-87.26527 -2.25977,-130.49136 -0.73648,-3.47987 -1.73896,-6.90463 -3.04248,-10.2163 z M 256,331.48437 c -46.0774,1.58364 -84.76865,-45.87364 -73.95464,-90.69783 7.7585,-45.26179 61.63263,-73.61937 103.33599,-54.33934 42.77158,16.44259 60.1086,74.62853 33.21111,111.75795 C 304.89411,318.7747 280.73933,331.69736 256,331.48437 Z m 78.46875,-136.3125 c -30.2128,0.0487 -15.27634,-49.23853 9.86284,-32.26839 14.40847,8.91709 7.07879,32.92672 -9.86284,32.26839 z"
         style="fill:#2b7270;fill-opacity:1" />
      <path
         id="path1156"
         d="M 256,0 C 155.33292,-1.3936588 58.260123,63.320811 20.120789,156.36237 -19.700867,247.767 0.91511154,361.31267 70.697475,432.6164 137.83502,504.8735 248.44496,531.25848 341.0638,497.52293 437.06366,464.90089 507.85692,370.59977 511.66683,269.17182 518.03805,170.5715 460.8721,72.028977 372.53488,28.010271 336.64816,9.5660034 296.34036,-0.06141803 256,0 Z m 146.11328,316.60547 c 0.92597,37.11806 -23.47433,74.74273 -61.09633,82.24544 -44.5798,7.14431 -90.15263,3.32592 -135.1519,3.7025 -34.64799,1.68911 -73.581,-12.48468 -87.66076,-46.63056 -14.03384,-35.98227 -7.56829,-75.6256 -9.19567,-113.34598 0.71056,-38.09705 -4.39925,-83.80146 27.49089,-111.62602 31.56211,-28.49775 76.8272,-19.73685 115.70384,-22.15151 36.88839,1.63644 76.7731,-4.92503 110.69871,12.93195 31.72281,17.20124 41.22575,55.66075 39.8086,89.20171 0.3007,35.21637 0.82421,70.47488 -0.59738,105.67247 z"
         style="fill:#2b7270;fill-opacity:1" />
    </g>
  </g>
</svg>
