<?xml version="1.0" encoding="UTF-8" standalone="no"?>
<svg
   xmlns:dc="http://purl.org/dc/elements/1.1/"
   xmlns:cc="http://creativecommons.org/ns#"
   xmlns:rdf="http://www.w3.org/1999/02/22-rdf-syntax-ns#"
   xmlns:svg="http://www.w3.org/2000/svg"
   xmlns="http://www.w3.org/2000/svg"
   xmlns:sodipodi="http://sodipodi.sourceforge.net/DTD/sodipodi-0.dtd"
   xmlns:inkscape="http://www.inkscape.org/namespaces/inkscape"
   width="41"
   height="41"
   viewBox="0 0 10.847916 10.847916"
   version="1.1"
   id="svg8"
   inkscape:version="1.0.1 (0767f8302a, 2020-10-17)"
   sodipodi:docname="linkedin.svg">
  <defs
     id="defs2" />
  <sodipodi:namedview
     id="base"
     pagecolor="#ffffff"
     bordercolor="#666666"
     borderopacity="1.0"
     inkscape:pageopacity="0.0"
     inkscape:pageshadow="2"
     inkscape:zoom="3.959798"
     inkscape:cx="24.522031"
     inkscape:cy="37.051584"
     inkscape:document-units="mm"
     inkscape:current-layer="layer1"
     inkscape:document-rotation="0"
     showgrid="false"
     inkscape:window-width="1872"
     inkscape:window-height="1043"
     inkscape:window-x="1968"
     inkscape:window-y="0"
     inkscape:window-maximized="1"
     units="px" />
  <metadata
     id="metadata5">
    <rdf:RDF>
      <cc:Work
         rdf:about="">
        <dc:format>image/svg+xml</dc:format>
        <dc:type
           rdf:resource="http://purl.org/dc/dcmitype/StillImage" />
        <dc:title></dc:title>
      </cc:Work>
    </rdf:RDF>
  </metadata>
  <g
     inkscape:label="Calque 1"
     inkscape:groupmode="layer"
     id="layer1">
    <path
       id="path1433"
       style="fill:#2b7270;fill-opacity:1;stroke-width:0.0206664"
       d="M 5.4222057,0.13274799 C 3.3418907,0.10394466 1.3358524,1.4414362 0.5476917,3.3643802 -0.27523466,5.253493 0.15080057,7.6002077 1.592874,9.0738831 2.9802913,10.567263 5.2660785,11.112577 7.1800744,10.415344 9.16394,9.7411257 10.626904,7.7921494 10.705638,5.695879 10.8373,3.6580487 9.6559487,1.6214129 7.8304337,0.71165256 7.0888241,0.33045418 6.2558515,0.13147879 5.4222057,0.13274799 Z M 3.8849014,8.1311024 c -0.4294777,0 -0.8589552,0 -1.2884328,0 0,-1.2922353 0,-2.5844704 0,-3.8767054 0.4294776,0 0.8589551,0 1.2884328,0 0,1.292235 0,2.5844701 0,3.8767054 z M 3.2407252,3.7250325 C 2.7285855,3.7783997 2.3358959,3.1743594 2.6006363,2.7314292 2.898425,2.1717015 3.9248477,2.315093 3.96503,2.9851416 4.027557,3.4008372 3.6446188,3.7512262 3.2407252,3.7250325 Z m 5.2899934,4.4060699 c -0.4294238,0 -0.8588476,0 -1.2882714,0 C 7.2314832,7.348522 7.2659452,6.5636536 7.2221592,5.7827097 7.2180592,5.2089425 6.4385472,4.9671475 6.084921,5.4009009 5.770301,5.7559696 5.9225534,6.2541059 5.886288,6.6844898 c 0,0.4822042 0,0.9644084 0,1.4466126 -0.4294508,0 -0.8589015,0 -1.2883523,0 0.00277,-1.2922107 0.016574,-2.5845746 0,-3.8767054 0.4294508,0 0.8589015,0 1.2883523,0 0,0.1829673 0,0.3659346 0,0.5489019 0.4946671,-0.9070165 2.0101872,-0.8321942 2.436314,0.099307 0.3193021,0.6802014 0.1751624,1.4470668 0.2081176,2.172866 0,0.351877 0,0.7037538 -10e-7,1.0556305 z" />
  </g>
</svg>
